<svg xmlns="http://www.w3.org/2000/svg" xmlns:xlink="http://www.w3.org/1999/xlink" width="75" height="75" viewBox="0 0 75 75">
  <defs>
    <style>
      .cls-1 {
        fill: #fff;
      }

      .cls-2 {
        fill: #febf11;
      }

      .cls-3 {
        filter: url(#Rectangle_8);
      }
    </style>
    <filter id="Rectangle_8" x="0" y="0" width="75" height="75" filterUnits="userSpaceOnUse">
      <feOffset input="SourceAlpha"/>
      <feGaussianBlur stdDeviation="2.5" result="blur"/>
      <feFlood flood-color="#febf11"/>
      <feComposite operator="in" in2="blur"/>
      <feComposite in="SourceGraphic"/>
    </filter>
  </defs>
  <g id="Icon_Blue_Running_Order_Copy_2" data-name="Icon Blue Running Order Copy 2" transform="translate(7.5 7.5)">
    <g class="cls-3" transform="matrix(1, 0, 0, 1, -7.5, -7.5)">
      <rect id="Rectangle_8-2" data-name="Rectangle 8" class="cls-1" width="60" height="60" rx="15" transform="translate(7.5 7.5)"/>
    </g>
    <g id="Group" transform="translate(11 14)">
      <path id="Fill_537" data-name="Fill 537" class="cls-2" d="M13.875,31H1.542A1.547,1.547,0,0,1,.031,29.147c.073-.367,1.849-9,7.678-9h6.167V4.65A4.643,4.643,0,0,1,18.5,0H32.375A4.643,4.643,0,0,1,37,4.65V9.3a1.548,1.548,0,0,1-1.542,1.551H30.833V24.8a4.643,4.643,0,0,1-4.625,4.649H15.417A1.548,1.548,0,0,1,13.875,31ZM7.709,23.25c-2.226,0-3.625,3.252-4.123,4.65h8.857a11.186,11.186,0,0,1,1.686-4.65ZM18.5,3.1A1.548,1.548,0,0,0,16.959,4.65v15.5h3.083a4.885,4.885,0,0,1,4.625,4.65,1.652,1.652,0,0,0,1.542,1.55A1.548,1.548,0,0,0,27.75,24.8V4.65A4.624,4.624,0,0,1,28.033,3.1Zm1.542,20.15a4.185,4.185,0,0,0-4.059,3.1h5.9a4.346,4.346,0,0,1-.3-1.55A1.809,1.809,0,0,0,20.041,23.25ZM32.375,3.1A1.548,1.548,0,0,0,30.833,4.65v3.1h3.083V4.65A1.548,1.548,0,0,0,32.375,3.1Z" transform="translate(0 0.001)"/>
      <path id="Fill_538" data-name="Fill 538" class="cls-2" d="M0,3.1H7.708V0H0Z" transform="translate(18.5 6.2)"/>
      <path id="Fill_539" data-name="Fill 539" class="cls-2" d="M0,3.1H7.708V0H0Z" transform="translate(18.5 10.85)"/>
      <path id="Fill_540" data-name="Fill 540" class="cls-2" d="M0,3.1H7.708V0H0Z" transform="translate(18.5 15.5)"/>
    </g>
  </g>
</svg>
