<svg id="Icon_Delivery" data-name="Icon Delivery" xmlns="http://www.w3.org/2000/svg" width="60" height="60" viewBox="0 0 60 60">
  <defs>
    <style>
      .cls-1 {
        fill: #febf11;
      }

      .cls-2 {
        fill: #fff;
      }
    </style>
  </defs>
  <rect id="Rectangle_7" data-name="Rectangle 7" class="cls-1" width="60" height="60" rx="15"/>
  <path id="Fill_797" data-name="Fill 797" class="cls-2" d="M29.25,35a5.853,5.853,0,0,1-5.489-3.889h-6.57a5.82,5.82,0,0,1-10.98,0H1.95A1.95,1.95,0,0,1,0,29.166V17.5a1.946,1.946,0,0,1,.572-1.374l5.85-5.834A1.96,1.96,0,0,1,7.8,9.722h3.9V7.778a3.9,3.9,0,0,1,3.9-3.889,3.9,3.9,0,0,1,7.8,0H35.1A3.9,3.9,0,0,1,39,7.778V29.166a1.949,1.949,0,0,1-1.949,1.945H34.741A5.858,5.858,0,0,1,29.25,35Zm0-7.778a1.944,1.944,0,1,0,1.95,1.944A1.949,1.949,0,0,0,29.25,27.222Zm-17.55,0a1.944,1.944,0,1,0,1.95,1.944A1.949,1.949,0,0,0,11.7,27.222Zm17.55-3.889a5.857,5.857,0,0,1,5.491,3.889H35.1V7.778H15.6V24.85a5.847,5.847,0,0,1,1.591,2.372h6.57A5.852,5.852,0,0,1,29.25,23.333ZM8.608,13.611h0L3.9,18.307v8.915H6.211A5.852,5.852,0,0,1,11.7,23.333V13.611Zm2.276,7.03H7.256V17.051h3.628V20.64Z" transform="translate(11 12)"/>
</svg>
