<svg id="Icon_Loading" data-name="Icon Loading" xmlns="http://www.w3.org/2000/svg" width="40" height="40" viewBox="0 0 40 40">
  <defs>
    <style>
      .cls-1 {
        fill: #fff;
      }

      .cls-2 {
        fill: #bbc1c9;
      }

      .cls-3 {
        fill: #4a4a4a;
      }
    </style>
  </defs>
  <rect id="Rectangle_12_Copy" data-name="Rectangle 12 Copy" class="cls-1" width="40" height="40" rx="5"/>
  <g id="loading_2x" data-name="loading @2x" transform="translate(6 5)">
    <path id="Oval_18" data-name="Oval 18" class="cls-2" d="M19.543,24.73A2.712,2.712,0,0,1,17,21.169a2.585,2.585,0,0,1,2.454-1.78,2.7,2.7,0,0,1,2.4,1.519,2.657,2.657,0,0,1-1.184,3.56A2.557,2.557,0,0,1,19.543,24.73Zm-10.21,0a2.556,2.556,0,0,1-1.13-.261,2.657,2.657,0,0,1-1.184-3.56,2.7,2.7,0,0,1,2.405-1.519,2.585,2.585,0,0,1,2.454,1.78A2.712,2.712,0,0,1,9.333,24.73Zm16.5-8.121a2.745,2.745,0,0,1-.617-.071,2.657,2.657,0,0,1-2.022-3.161,2.627,2.627,0,0,1,2.586-2.025,2.749,2.749,0,0,1,.617.071,2.656,2.656,0,0,1,2.021,3.161A2.625,2.625,0,0,1,25.834,16.608Zm-22.792,0A2.627,2.627,0,0,1,.457,14.583a2.657,2.657,0,0,1,2.022-3.161,2.746,2.746,0,0,1,.617-.071,2.626,2.626,0,0,1,2.585,2.025A2.657,2.657,0,0,1,3.66,16.537,2.75,2.75,0,0,1,3.043,16.608ZM23.5,6.553a2.589,2.589,0,0,1-2.589-2.9,2.692,2.692,0,0,1,.989-1.79,2.722,2.722,0,0,1,1.706-.607,2.6,2.6,0,0,1,2.03.96,2.658,2.658,0,0,1-.432,3.728A2.718,2.718,0,0,1,23.5,6.553Zm-18.129,0a2.718,2.718,0,0,1-1.7-.607,2.658,2.658,0,0,1-.431-3.728,2.6,2.6,0,0,1,2.03-.96,2.719,2.719,0,0,1,1.705.607,2.69,2.69,0,0,1,.989,1.79,2.59,2.59,0,0,1-2.589,2.9Z" transform="translate(0 3.258)"/>
    <ellipse id="Path" class="cls-3" cx="2.625" cy="2.681" rx="2.625" ry="2.681" transform="translate(11.813 0)"/>
  </g>
</svg>
