<svg id="Icon_Edit" data-name="Icon Edit" xmlns="http://www.w3.org/2000/svg" width="40" height="40" viewBox="0 0 40 40">
  <defs>
    <style>
      .cls-1 {
        fill: #febf11;
      }

      .cls-2, .cls-3, .cls-4 {
        fill: none;
      }

      .cls-2 {
        opacity: 0;
      }

      .cls-3, .cls-4 {
        stroke: #fff;
        stroke-linecap: round;
        stroke-miterlimit: 10;
      }

      .cls-3 {
        stroke-linejoin: round;
        stroke-width: 2.205px;
      }

      .cls-4 {
        stroke-width: 3px;
      }
    </style>
  </defs>
  <rect id="Rectangle_12" data-name="Rectangle 12" class="cls-1" width="40" height="40" rx="5"/>
  <g id="Icon_pen" data-name="Icon pen" transform="translate(6 6)">
    <g id="pen">
      <rect id="cont" class="cls-2" width="28" height="28"/>
      <path id="Path_142" data-name="Path 142" class="cls-3" d="M0,16.6V13.467L12.133,1.334a1.436,1.436,0,0,1,2.031,0l1.1,1.1a1.436,1.436,0,0,1,0,2.031L3.131,16.6Z" transform="translate(9.767 1.635)"/>
      <path id="Line" class="cls-4" d="M.45,1.5H11.6" transform="translate(3.75 1.43)"/>
      <path id="Line_Copy" data-name="Line Copy" class="cls-4" d="M1.5.444V20.7" transform="translate(2.733 2.45)"/>
      <path id="Line_Copy_2" data-name="Line Copy 2" class="cls-4" d="M20.052,1.5H.443" transform="translate(3.752 22.267)"/>
      <path id="Line_Copy_3" data-name="Line Copy 3" class="cls-4" d="M1.5,12.235V.452" transform="translate(22.919 11.563)"/>
      <path id="Path_140" data-name="Path 140" class="cls-3" d="M0,0,3.256,3.256" transform="translate(20.186 4.558)"/>
    </g>
  </g>
</svg>
