<svg id="Icon_Hold" data-name="Icon Hold" xmlns="http://www.w3.org/2000/svg" width="40" height="40" viewBox="0 0 40 40">
  <defs>
    <style>
      .cls-1, .cls-2 {
        fill: #fff;
      }

      .cls-2 {
        stroke-miterlimit: 10;
      }

      .cls-3, .cls-4 {
        stroke: none;
      }

      .cls-4 {
        fill: #4a4a4a;
      }
    </style>
  </defs>
  <rect id="Rectangle_12_Copy" data-name="Rectangle 12 Copy" class="cls-1" width="40" height="40" rx="5"/>
  <g id="Drag" class="cls-2" transform="translate(11 10)">
    <path class="cls-3" d="M 15.68301010131836 20.73500061035156 L 14.94801044464111 20.73500061035156 L 4.969669818878174 20.73500061035156 L 4.234670162200928 20.73500061035156 L 4.234670162200928 20 C 4.234670162200928 19.8635196685791 4.158790111541748 19.5273609161377 3.650589942932129 18.80934906005859 C 3.237540006637573 18.22579002380371 2.677449941635132 17.57926940917969 2.08447003364563 16.89479064941406 C 0.6352999806404114 15.22200965881348 -0.7335000038146973 13.64200019836426 -0.7335000038146973 12.21697044372559 C -0.7335000038146973 12.18829154968262 -0.7320508360862732 12.16180515289307 -0.7299622297286987 12.13836002349854 C -0.7314853072166443 12.1181001663208 -0.7325000166893005 12.09567070007324 -0.7325000166893005 12.07149028778076 L -0.7350000143051147 5.440100193023682 C -0.7350000143051147 3.963690042495728 0.491100013256073 2.761110067367554 1.998170018196106 2.759059906005859 L 2.734169960021973 2.758059978485107 L 2.734169960021973 3.494060039520264 L 2.734169960021973 7.2681565284729 C 2.740297555923462 7.268690586090088 2.746919631958008 7.269000053405762 2.754040002822876 7.269000053405762 C 2.760976076126099 7.269000053405762 2.767432451248169 7.268704414367676 2.773420095443726 7.268191337585449 L 2.773420095443726 1.781780004501343 C 2.773420095443726 0.3940199911594391 3.886029958724976 -0.7350000143051147 5.253620147705078 -0.7350000143051147 C 6.24203634262085 -0.7350000143051147 7.097336292266846 -0.1453912109136581 7.495777130126953 0.7052749991416931 C 7.926745891571045 0.4270212650299072 8.442681312561035 0.2648800015449524 8.996500015258789 0.2648800015449524 C 10.21720218658447 0.2648800015449524 11.25349044799805 1.052756786346436 11.60251712799072 2.13618540763855 C 12.01145458221436 1.898960828781128 12.48859405517578 1.76268994808197 12.99783039093018 1.76268994808197 C 14.15900802612305 1.76268994808197 15.15376281738281 2.471785306930542 15.55166530609131 3.469712734222412 C 15.83887577056885 3.335570096969604 16.15932083129883 3.260499954223633 16.49674987792969 3.260499954223633 C 17.72650909423828 3.260499954223633 18.72699928283691 4.25294017791748 18.72699928283691 5.472819805145264 L 18.73498916625977 7.451600074768066 L 18.73500061035156 11.50255966186523 C 18.73500061035156 13.41501045227051 17.75650024414063 15.28320026397705 16.89318084716797 16.93147087097168 C 16.27083969116211 18.11967086791992 15.68301010131836 19.24197006225586 15.68301010131836 20 L 15.68301010131836 20.73500061035156 Z"/>
    <path class="cls-4" d="M 5.253620147705078 0 C 4.289790153503418 0 3.508410453796387 0.7978992462158203 3.508410453796387 1.781780242919922 L 3.508410453796387 7.405570030212402 C 3.508410453796387 7.736029624938965 3.170470237731934 8.003999710083008 2.754039764404297 8.003999710083008 C 2.337109565734863 8.003999710083008 1.999170303344727 7.736029624938965 1.999170303344727 7.405570030212402 L 1.999170303344727 3.494060516357422 C 0.8948497772216797 3.495559692382813 0 4.365949630737305 0 5.439820289611816 L 0.002500534057617188 12.07148933410645 C 0.002500534057617188 12.09699058532715 0.009500503540039063 12.12049007415771 0.01049995422363281 12.14497947692871 C 0.009000778198242188 12.1704797744751 0.001499176025390625 12.19048023223877 0.001499176025390625 12.21697044372559 C 0.001499176025390625 14.42720031738281 4.969670295715332 18.12772941589355 4.969670295715332 20 C 6.730380058288574 20 12.35444068908691 20 14.9480094909668 20 C 14.9480094909668 17.90975952148438 18 14.64616966247559 18 11.50255966186523 C 18 8.358960151672363 18 7.454569816589355 18 7.454569816589355 L 17.99200057983398 5.472820281982422 C 17.99200057983398 4.656920433044434 17.32210922241211 3.995500564575195 16.49674987792969 3.995500564575195 C 15.67238998413086 3.995500564575195 15.00500011444092 4.654419898986816 15.0019998550415 5.467820167541504 L 15.0019998550415 4.43694019317627 C 15.0019998550415 3.365579605102539 14.10465049743652 2.497690200805664 12.99782943725586 2.497690200805664 C 11.8905200958252 2.497690200805664 10.9931697845459 3.365579605102539 10.9931697845459 4.43694019317627 L 10.9931697845459 2.938629150390625 C 10.9931697845459 1.867769241333008 10.09881973266602 0.9998703002929688 8.996500015258789 0.9998703002929688 C 7.893679618835449 0.9998703002929688 6.999329566955566 1.867769241333008 6.999329566955566 2.938629150390625 L 6.999329566955566 1.781780242919922 C 6.999329566955566 0.7978992462158203 6.217960357666016 0 5.253620147705078 0 M 5.253620147705078 -1.469999313354492 C 6.268224716186523 -1.469999313354492 7.174600601196289 -0.9923648834228516 7.764395713806152 -0.2477931976318359 C 8.147431373596191 -0.3914394378662109 8.562774658203125 -0.4701309204101563 8.996500015258789 -0.4701309204101563 C 10.25467491149902 -0.4701309204101563 11.35841941833496 0.1923007965087891 11.96596717834473 1.181142807006836 C 12.29207611083984 1.081441879272461 12.63871002197266 1.027690887451172 12.99782943725586 1.027690887451172 C 14.21744918823242 1.027690887451172 15.29229259490967 1.647581100463867 15.91236209869385 2.583173751831055 C 16.10138320922852 2.545354843139648 16.29682922363281 2.52549934387207 16.49674987792969 2.52549934387207 C 18.13039207458496 2.52549934387207 19.45972633361816 3.845254898071289 19.46199607849121 5.468508720397949 L 19.46998977661133 7.448639869689941 L 19.46999931335449 7.451600074768066 L 19.46999931335449 7.454569816589355 L 19.46999931335449 11.50255966186523 C 19.46999931335449 13.59584045410156 18.44692039489746 15.54913997650146 17.54427909851074 17.27249908447266 C 17.01635932922363 18.28041076660156 16.41801071166992 19.42280960083008 16.41801071166992 20 L 16.41801071166992 21.46999931335449 L 14.9480094909668 21.46999931335449 L 4.969670295715332 21.46999931335449 L 3.499670028686523 21.46999931335449 L 3.499670028686523 20.02895927429199 C 3.485034942626953 19.96902847290039 3.401568412780762 19.71030807495117 2.961270332336426 19.10998916625977 C 2.575869560241699 18.58452987670898 2.067330360412598 17.99752044677734 1.528940200805664 17.37604904174805 C -0.01251983642578125 15.59673976898193 -1.468500137329102 13.91609954833984 -1.468500137329102 12.21697044372559 C -1.468500137329102 12.18757057189941 -1.467697143554688 12.1595458984375 -1.466316223144531 12.13301467895508 C -1.467073440551758 12.11330604553223 -1.467500686645508 12.0927791595459 -1.467500686645508 12.07148933410645 L -1.469999313354492 5.440369606018066 C -1.469999313354492 3.5589599609375 0.08536911010742188 2.026660919189453 1.997169494628906 2.024059295654297 L 2.038410186767578 2.024003982543945 L 2.038410186767578 1.781780242919922 C 2.038410186767578 -0.01125907897949219 3.48075008392334 -1.469999313354492 5.253620147705078 -1.469999313354492 Z"/>
  </g>
</svg>
