<svg id="Icon_Blue_DIne_In" data-name="Icon Blue DIne In" xmlns="http://www.w3.org/2000/svg" width="60" height="60" viewBox="0 0 60 60">
  <defs>
    <style>
      .cls-1 {
        fill: #febf11;
      }

      .cls-2, .cls-3 {
        fill: #fff;
      }

      .cls-3 {
        stroke: #febf11;
        stroke-miterlimit: 10;
        stroke-width: 2px;
      }
    </style>
  </defs>
  <rect id="Rectangle_7" data-name="Rectangle 7" class="cls-1" width="60" height="60" rx="15"/>
  <path id="Fill_816" data-name="Fill 816" class="cls-2" d="M3.2,31H0V1.551A1.548,1.548,0,0,1,.987.118,1.639,1.639,0,0,1,2.732.455C2.947.662,8,5.713,8,20.15A1.577,1.577,0,0,1,6.4,21.7H3.2V31Zm0-22.872h0V18.6H4.779A38.8,38.8,0,0,0,3.2,8.128Z" transform="translate(41 14)"/>
  <path id="Fill_817" data-name="Fill 817" class="cls-2" d="M12,6.2V0H9V6.2A3.114,3.114,0,0,1,7.5,8.871V0h-3V8.871A3.114,3.114,0,0,1,3,6.2V0H0V6.2a6.162,6.162,0,0,0,4.5,5.98V31h3V12.18A6.162,6.162,0,0,0,12,6.2" transform="translate(12 14)"/>
  <path id="Fill_818" data-name="Fill 818" class="cls-2" d="M9.5,18A9.271,9.271,0,0,1,0,9,9.271,9.271,0,0,1,9.5,0,9.27,9.27,0,0,1,19,9,9.27,9.27,0,0,1,9.5,18Zm0-15A6.181,6.181,0,0,0,3.167,9,6.181,6.181,0,0,0,9.5,15a6.181,6.181,0,0,0,6.333-6A6.181,6.181,0,0,0,9.5,3Z" transform="translate(21 25)"/>
  <path id="Path" class="cls-3" d="M6.333,12A6.18,6.18,0,0,1,0,6,6.181,6.181,0,0,1,6.333,0a6.181,6.181,0,0,1,6.333,6,6.18,6.18,0,0,1-6.333,6" transform="translate(24.167 28)"/>
</svg>
