<svg id="Icon_Edit_Copy" data-name="Icon Edit Copy" xmlns="http://www.w3.org/2000/svg" width="40" height="40" viewBox="0 0 40 40">
  <defs>
    <style>
      .cls-1 {
        fill: #fff;
      }

      .cls-2, .cls-3, .cls-4, .cls-6 {
        fill: none;
      }

      .cls-2, .cls-3, .cls-4 {
        stroke: #4a4a4a;
        stroke-miterlimit: 10;
      }

      .cls-2 {
        stroke-width: 0.714px;
        opacity: 0;
      }

      .cls-3, .cls-4 {
        stroke-linecap: round;
      }

      .cls-3 {
        stroke-linejoin: round;
        stroke-width: 1.429px;
      }

      .cls-4 {
        stroke-width: 1.944px;
      }

      .cls-5 {
        stroke: none;
      }
    </style>
  </defs>
  <rect id="Rectangle_12" data-name="Rectangle 12" class="cls-1" width="40" height="40" rx="5"/>
  <g id="pen" transform="translate(6 6)">
    <g id="cont" class="cls-2">
      <rect class="cls-5" width="28" height="28"/>
      <rect class="cls-6" x="0.357" y="0.357" width="27.286" height="27.286"/>
    </g>
    <path id="Path_142" data-name="Path 142" class="cls-3" d="M0,16.279V13.148L12.138,1.01a1.429,1.429,0,0,1,2.021,0l1.11,1.11a1.429,1.429,0,0,1,0,2.021L3.131,16.279Z" transform="translate(9.767 1.953)"/>
    <path id="Line" class="cls-4" d="M.293.977H11.444" transform="translate(3.907 1.953)"/>
    <path id="Line_Copy" data-name="Line Copy" class="cls-4" d="M.977.289V20.548" transform="translate(3.256 2.605)"/>
    <path id="Line_Copy_2" data-name="Line Copy 2" class="cls-4" d="M19.9.977H.288" transform="translate(3.907 22.791)"/>
    <path id="Line_Copy_3" data-name="Line Copy 3" class="cls-4" d="M.977,12.078V.295" transform="translate(23.442 11.721)"/>
    <path id="Path_140" data-name="Path 140" class="cls-3" d="M0,0,3.256,3.256" transform="translate(20.186 4.558)"/>
  </g>
</svg>
